<svg width="36" height="36" viewBox="0 0 36 36" fill="none" xmlns="http://www.w3.org/2000/svg">
<path d="M22.2724 0.925344L18.7815 0L15.8395 10.8611L13.1835 1.05562L9.69248 1.98096L12.5621 12.575L5.4145 5.50447L2.85889 8.03254L10.6989 15.7882L0.935418 13.2002L0 16.6536L10.6679 19.4812C10.5458 18.9601 10.4811 18.4171 10.4811 17.8592C10.4811 13.9101 13.7173 10.7087 17.7095 10.7087C21.7016 10.7087 24.9379 13.9101 24.9379 17.8592C24.9379 18.4135 24.874 18.9532 24.7534 19.4712L34.4485 22.041L35.3838 18.5876L24.6735 15.7487L34.4377 13.1606L33.5022 9.70721L22.7924 12.546L29.94 5.47544L27.3844 2.94737L19.6532 10.5954L22.2724 0.925344Z" fill="white"/>
<path d="M24.7435 19.5112C24.4442 20.7629 23.8123 21.8875 22.9453 22.7884L29.969 29.7365L32.5245 27.2084L24.7435 19.5112Z" fill="white"/>
<path d="M22.8744 22.8613C21.9969 23.7478 20.888 24.4094 19.6445 24.7504L22.2003 34.1859L25.6913 33.2605L22.8744 22.8613Z" fill="white"/>
<path d="M19.5136 24.7849C18.9366 24.9316 18.332 25.0096 17.7088 25.0096C17.0411 25.0096 16.3945 24.92 15.7808 24.7524L13.2227 34.1965L16.7136 35.1218L19.5136 24.7849Z" fill="white"/>
<path d="M15.6576 24.7178C14.4331 24.3599 13.3439 23.6899 12.4843 22.8008L5.44336 29.7659L7.99896 32.294L15.6576 24.7178Z" fill="white"/>
<path d="M12.4252 22.739C11.5803 21.8443 10.965 20.7348 10.6721 19.5024L0.945312 22.0806L1.88071 25.5339L12.4252 22.739Z" fill="white"/>
</svg>
